<?xml version="1.0" encoding="UTF-8" standalone="no"?>
<!-- Created with Inkscape (http://www.inkscape.org/) -->

<svg
   xmlns:dc="http://purl.org/dc/elements/1.1/"
   xmlns:cc="http://creativecommons.org/ns#"
   xmlns:rdf="http://www.w3.org/1999/02/22-rdf-syntax-ns#"
   xmlns:svg="http://www.w3.org/2000/svg"
   xmlns="http://www.w3.org/2000/svg"
   xmlns:sodipodi="http://sodipodi.sourceforge.net/DTD/sodipodi-0.dtd"
   xmlns:inkscape="http://www.inkscape.org/namespaces/inkscape"
   width="250"
   height="250"
   id="svg2"
   version="1.1"
   inkscape:version="0.48.2 r9819"
   sodipodi:docname="Pixie Point.svg"
   inkscape:export-filename="C:\Users\Zc456\My Media\Artwork\Pixie Point logo.png"
   inkscape:export-xdpi="90"
   inkscape:export-ydpi="90">
  <defs
     id="defs4">
    <clipPath
       clipPathUnits="userSpaceOnUse"
       id="clipPath3809">
      <path
         style="fill:none;stroke:#000000;stroke-width:1px;stroke-linecap:butt;stroke-linejoin:miter;stroke-opacity:1"
         d="m 147.98735,314.95082 70.71068,35.35534 75.25636,-41.41625 25.25382,-128.28937 -197.48483,0.50507 z"
         id="path3811"
         inkscape:connector-curvature="0"
         sodipodi:nodetypes="cccccc" />
    </clipPath>
  </defs>
  <sodipodi:namedview
     id="base"
     pagecolor="#ffffff"
     bordercolor="#666666"
     borderopacity="1.0"
     inkscape:pageopacity="0"
     inkscape:pageshadow="2"
     inkscape:zoom="1.979899"
     inkscape:cx="181.22412"
     inkscape:cy="167.23765"
     inkscape:document-units="px"
     inkscape:current-layer="layer1"
     showgrid="false"
     inkscape:window-width="708"
     inkscape:window-height="425"
     inkscape:window-x="786"
     inkscape:window-y="110"
     inkscape:window-maximized="0" />
  <metadata
     id="metadata7">
    <rdf:RDF>
      <cc:Work
         rdf:about="">
        <dc:format>image/svg+xml</dc:format>
        <dc:type
           rdf:resource="http://purl.org/dc/dcmitype/StillImage" />
        <dc:title></dc:title>
      </cc:Work>
    </rdf:RDF>
  </metadata>
  <g
     inkscape:label="Layer 1"
     inkscape:groupmode="layer"
     id="layer1"
     transform="translate(0,-802.36218)">
    <path
       style="fill:#536c53;stroke:none"
       d="m 205.63544,1003.9481 c -6.90832,13.1657 -2.15609,24.1305 5.99153,28.808 -10.40931,2.1948 -21.44744,1.72 -32.20448,1.72 2.21431,-9.3645 1.49787,-19.6936 1.49787,-29.668 8.56108,-0.2479 19.43267,-0.8476 24.71508,-0.86 z"
       id="path2987-1"
       inkscape:connector-curvature="0"
       sodipodi:nodetypes="ccccc" />
    <path
       style="fill:#536c53;stroke:none"
       d="m 32.255493,1007.1945 c 6.908318,13.1658 2.156084,24.1306 -5.991528,28.8082 10.409303,2.1947 21.447432,1.7198 32.204479,1.7198 -2.21431,-9.3644 -1.497881,-19.6935 -1.497881,-29.668 -8.561079,-0.2478 -19.432665,-0.8476 -24.71507,-0.86 z"
       id="path2987"
       inkscape:connector-curvature="0"
       sodipodi:nodetypes="ccccc" />
    <path
       style="fill:#6f916f;stroke:none"
       d="m 38.99597,993.00545 c 51.622205,-6.39169 109.78774,-16.70256 159.52452,0.42996 -2.91588,10.42969 -7.44052,20.22789 -6.36601,30.09809 -50.4974,-8.853 -102.327996,0 -152.784044,0 5.924856,-10.8848 3.092358,-19.9129 -0.374466,-30.52805 z"
       id="path2985"
       inkscape:connector-curvature="0" />
    <text
       xml:space="preserve"
       style="font-size:28.60056496px;font-style:normal;font-weight:normal;line-height:125%;letter-spacing:0px;word-spacing:0px;fill:#ffffff;fill-opacity:1;stroke:none;font-family:Sans"
       x="75.492104"
       y="943.95697"
       id="text3777"
       sodipodi:linespacing="125%"
       transform="scale(0.93323019,1.071547)"><tspan
         sodipodi:role="line"
         id="tspan3779"
         x="75.492104"
         y="943.95697"
         style="font-size:28.60056496px;font-style:normal;font-variant:normal;font-weight:normal;font-stretch:normal;fill:#ffffff;font-family:PreludeFLF;-inkscape-font-specification:PreludeFLF">Pixie Point</tspan></text>
    <g
       id="g3975"
       transform="matrix(0.76764441,0,0,0.90434975,-46.470048,652.66043)">
      <path
         sodipodi:nodetypes="cccccc"
         inkscape:connector-curvature="0"
         id="path3775-7-4"
         d="m 148.23989,315.4559 70.71068,35.35534 75.25636,-41.41625 25.25382,-128.28937 -197.48483,0.50507 z"
         style="fill:#0088aa;stroke:none" />
      <g
         transform="matrix(1.0120679,0,0,1,-2.3702318,0)"
         clip-path="url(#clipPath3809)"
         id="g3787">
        <path
           style="fill:#decd87;stroke:none"
           d="m 140.4112,271.51426 c 44.58867,13.49199 40.33097,-7.18933 65.15484,-23.73858 15.38426,-10.25617 52.36778,-13.21206 66.67007,-6.06092 -10.79547,22.33067 -55.75542,24.43236 -62.12438,41.41626 15.57173,20.67853 64.02099,18.48167 86.36804,10.10152 13.43891,-19.62912 5.05468,-45.4725 10.6066,-67.68022 4.51793,-18.07172 25.47408,-33.32837 15.65737,-50.50762 -44.73672,3.74421 -92.21349,-19.01631 -136.87567,-9.09138 -13.15868,2.92415 -23.34388,13.31874 -37.37565,15.65737 -11.52251,1.92042 -22.102,-4.84373 -32.32488,-1.01015 -16.579717,33.42608 20.70325,62.59022 24.24366,90.91372 z"
           id="path3781"
           inkscape:connector-curvature="0" />
        <path
           style="fill:#2d5016;stroke:none"
           d="m 129.29953,269.49396 c 31.08531,-5.28485 73.73763,-25.25031 92.42895,-43.94164 16.9122,-16.91219 67.3106,1.94689 64.14469,27.27412 -3.08897,24.71177 -42.42641,14.62428 -42.42641,30.80966 0,8.21393 58.00112,8.11245 69.70053,-10.60661 1.16585,-29.10851 4.44007,-59.31737 13.63706,-83.84266 -0.9921,-46.42264 -216.09572,-20.40819 -220.71833,-8.08122 z"
           id="path3785"
           inkscape:connector-curvature="0"
           sodipodi:nodetypes="cssscccc" />
      </g>
    </g>
  </g>
</svg>
